<svg xmlns="http://www.w3.org/2000/svg" viewBox="0 0 200 40" fill="none">
  
  <path d="M12 6 C9 6 6 8 6 12 C6 16 7 20 8 24 C9 28 10 32 12 32 C13.5 32 14 30 14 28 C14 26 15 25 16 25 C17 25 18 26 18 28 C18 30 18.5 32 20 32 C22 32 23 28 24 24 C25 20 26 16 26 12 C26 8 23 6 20 6 C18 6 17 7.5 16 7.5 C15 7.5 14 6 12 6Z" fill="url(#logoGrad)" opacity="0.95"></path>
  
  <text x="34" y="27" font-family="Sora, sans-serif" font-size="18" font-weight="700" fill="white" letter-spacing="-0.5">Praktijk</text>
  <text x="118" y="27" font-family="Sora, sans-serif" font-size="18" font-weight="300" fill="rgba(255,255,255,0.65)" letter-spacing="-0.5">Flow</text>
  <defs>
    <linearGradient id="logoGrad" x1="6" y1="6" x2="26" y2="32" gradientUnits="userSpaceOnUse">
      <stop offset="0%" stop-color="#6fa3ff"></stop>
      <stop offset="100%" stop-color="#00d4b4"></stop>
    </linearGradient>
  </defs>
</svg>