<svg xmlns="http://www.w3.org/2000/svg" viewBox="0 0 32 32" fill="none">
  <path d="M8 6 C5 6 2 8.5 2 13 C2 17.5 3.5 22 5 26.5 C6.2 30 7.5 34 9.5 34 C11 34 11.8 32 12 30 C12.2 28 13 27 14 27 C15 27 15.8 28 16 30 C16.2 32 17 34 18.5 34 C20.5 34 21.8 30 23 26.5 C24.5 22 26 17.5 26 13 C26 8.5 23 6 20 6 C17.5 6 16.5 7.5 14 7.5 C11.5 7.5 10.5 6 8 6Z" fill="url(#markGrad)"></path>
  <defs>
    <linearGradient id="markGrad" x1="2" y1="6" x2="26" y2="34" gradientUnits="userSpaceOnUse">
      <stop offset="0%" stop-color="#6fa3ff"></stop>
      <stop offset="100%" stop-color="#00d4b4"></stop>
    </linearGradient>
  </defs>
</svg>